<?xml version="1.0" encoding="UTF-8"?>
<svg id="Layer_2" data-name="Layer 2" xmlns="http://www.w3.org/2000/svg" viewBox="0 0 563.18 563.18">
  <defs>
    <style>
      .cls-1 {
        stroke-width: 0px;
      }
    </style>
  </defs>
  <g id="Objects">
    <g>
      <path class="cls-1" d="M506.49,177.45l-.74.74c-6.71,6.71-8.84,16.68-5.66,25.62,8.66,24.3,13.37,50.47,13.37,77.74.03,127.63-104.14,231.88-231.77,231.93-126.97.05-230.12-101.93-231.97-228.42S150.52,51.6,278.14,49.74c51.6-.75,99.4,15.35,138.26,43.17,9.67,6.92,22.94,5.77,31.35-2.64l.68-.68c10.68-10.68,9.15-28.35-3.13-37.14C399.05,19.35,342.36-.1,281.13,0,126.09.25-.24,127.01,0,282.05c.24,155.3,126.23,281.13,281.6,281.13s281.58-126.07,281.58-281.58c0-33.34-5.8-65.33-16.44-95.02-6.06-16.89-27.56-21.83-40.25-9.14Z"/>
      <path class="cls-1" d="M425.62,219.72l-188.8,188.8c-9.21,9.21-24.15,9.21-33.36,0l-65.68-65.68c-10.3-10.3-10.55-27.42-.05-37.52s26.36-9.67,36.39.36l46.02,46.02,168.73-168.73c10.15-10.15,26.6-10.15,36.75,0,10.15,10.15,10.15,26.6,0,36.75Z"/>
    </g>
  </g>
</svg>