<?xml version="1.0" encoding="UTF-8"?>
<svg id="Layer_2" data-name="Layer 2" xmlns="http://www.w3.org/2000/svg" viewBox="0 0 542.96 778.99">
  <defs>
    <style>
      .cls-1 {
        fill: #fff;
        stroke-width: 0px;
      }
    </style>
  </defs>
  <g id="Layer_1-2" data-name="Layer 1">
    <path class="cls-1" d="M499.4,279.59h-26.1v-77.78c0-27.14-5.36-53.52-15.94-78.42-10.2-24-24.77-45.58-43.32-64.13-18.55-18.55-40.13-33.12-64.13-43.32-24.9-10.58-51.28-15.94-78.42-15.94s-53.53,5.36-78.43,15.94c-24,10.2-45.58,24.77-64.13,43.32-18.55,18.55-33.12,40.13-43.32,64.13-10.58,24.9-15.94,51.28-15.94,78.42v77.78h-26.1c-24.05,0-43.56,19.5-43.56,43.56v412.28c0,24.05,19.51,43.56,43.56,43.56h455.84c24.06,0,43.56-19.51,43.56-43.56v-412.28c0-24.06-19.5-43.56-43.56-43.56ZM115.48,201.81c0-86.02,69.98-156,156.01-156s156,69.98,156,156v77.78H115.48v-77.78ZM302.44,589.62h-60.15c3.93-18.25,7.86-36.5,11.79-54.74-11.81-6.48-19.83-19.03-19.83-33.45,0-21.06,17.07-38.12,38.12-38.12s38.11,17.06,38.11,38.12c0,14.42-8.01,26.97-19.83,33.45,3.93,18.24,7.86,36.49,11.79,54.74Z"/>
  </g>
</svg>