<?xml version="1.0" encoding="UTF-8"?>
<svg xmlns="http://www.w3.org/2000/svg" xmlns:xlink="http://www.w3.org/1999/xlink" viewBox="0 0 35.2 34.28">
  <defs>
    <style>
      .cls-1 {
        fill: url(#radial-gradient-6);
      }

      .cls-1, .cls-2, .cls-3, .cls-4, .cls-5, .cls-6, .cls-7, .cls-8, .cls-9, .cls-10, .cls-11, .cls-12, .cls-13, .cls-14, .cls-15, .cls-16 {
        fill-rule: evenodd;
        stroke-width: 0px;
      }

      .cls-2 {
        fill: #848484;
      }

      .cls-17 {
        isolation: isolate;
      }

      .cls-3 {
        fill: url(#radial-gradient-9);
      }

      .cls-4 {
        fill: url(#radial-gradient-10);
      }

      .cls-4, .cls-12, .cls-14 {
        mix-blend-mode: multiply;
      }

      .cls-5 {
        fill: url(#radial-gradient-14);
      }

      .cls-5, .cls-6, .cls-7, .cls-10, .cls-15, .cls-16 {
        mix-blend-mode: screen;
      }

      .cls-6 {
        fill: url(#radial-gradient-3);
      }

      .cls-7 {
        fill: url(#radial-gradient-4);
      }

      .cls-8 {
        fill: url(#radial-gradient-8);
      }

      .cls-9 {
        fill: url(#radial-gradient);
      }

      .cls-10 {
        fill: url(#radial-gradient-13);
      }

      .cls-11 {
        fill: url(#radial-gradient-7);
      }

      .cls-12 {
        fill: url(#radial-gradient-2);
      }

      .cls-13 {
        fill: #ffd400;
      }

      .cls-14 {
        fill: url(#radial-gradient-11);
      }

      .cls-15 {
        fill: url(#radial-gradient-5);
      }

      .cls-16 {
        fill: url(#radial-gradient-12);
      }
    </style>
    <radialGradient id="radial-gradient" cx="10.63" cy="6.38" fx="10.63" fy="6.38" r="31.19" gradientUnits="userSpaceOnUse">
      <stop offset="0" stop-color="#fcf800"/>
      <stop offset="1" stop-color="#fc9700"/>
    </radialGradient>
    <radialGradient id="radial-gradient-2" cx="14.68" cy="9.41" fx="14.68" fy="9.41" r="29.73" gradientUnits="userSpaceOnUse">
      <stop offset="0" stop-color="#fff"/>
      <stop offset=".1" stop-color="#fffcf9"/>
      <stop offset=".22" stop-color="#fff6e9"/>
      <stop offset=".36" stop-color="#ffecce"/>
      <stop offset=".51" stop-color="#ffdea9"/>
      <stop offset=".67" stop-color="#ffcb7a"/>
      <stop offset=".84" stop-color="#ffb540"/>
      <stop offset="1" stop-color="#ff9d00"/>
    </radialGradient>
    <radialGradient id="radial-gradient-3" cx="6.74" cy=".44" fx="6.74" fy=".44" r="27.37" gradientUnits="userSpaceOnUse">
      <stop offset="0" stop-color="#fff261"/>
      <stop offset=".11" stop-color="#faed5f"/>
      <stop offset=".23" stop-color="#ece05a"/>
      <stop offset=".36" stop-color="#d6cb51"/>
      <stop offset=".5" stop-color="#b6ad45"/>
      <stop offset=".64" stop-color="#8e8636"/>
      <stop offset=".78" stop-color="#5c5723"/>
      <stop offset=".92" stop-color="#22210d"/>
      <stop offset="1" stop-color="#000"/>
    </radialGradient>
    <radialGradient id="radial-gradient-4" cx="6.84" cy="1.5" fx="6.84" fy="1.5" r="19.82" gradientUnits="userSpaceOnUse">
      <stop offset="0" stop-color="#fffacf"/>
      <stop offset="1" stop-color="#000"/>
    </radialGradient>
    <radialGradient id="radial-gradient-5" cx="20.2" cy="28.79" fx="20.2" fy="28.79" r="12.76" gradientUnits="userSpaceOnUse">
      <stop offset="0" stop-color="#000"/>
      <stop offset=".08" stop-color="#222111"/>
      <stop offset=".22" stop-color="#5c582e"/>
      <stop offset=".36" stop-color="#8e8747"/>
      <stop offset=".5" stop-color="#b6ae5b"/>
      <stop offset=".64" stop-color="#d6cc6b"/>
      <stop offset=".77" stop-color="#ece176"/>
      <stop offset=".89" stop-color="#faee7d"/>
      <stop offset="1" stop-color="#fff380"/>
    </radialGradient>
    <radialGradient id="radial-gradient-6" cx="24.31" cy="9.08" fx="24.31" fy="9.08" r="14.53" gradientUnits="userSpaceOnUse">
      <stop offset="0" stop-color="#fcac00"/>
      <stop offset="1" stop-color="#ff7300"/>
    </radialGradient>
    <radialGradient id="radial-gradient-7" cx="17.16" cy="30.5" fx="17.16" fy="30.5" r="13.35" gradientUnits="userSpaceOnUse">
      <stop offset="0" stop-color="#fc8f00"/>
      <stop offset="1" stop-color="#e86900"/>
    </radialGradient>
    <radialGradient id="radial-gradient-8" cx="31.54" cy="19.88" fx="31.54" fy="19.88" r="16.69" xlink:href="#radial-gradient-6"/>
    <radialGradient id="radial-gradient-9" cx="7.41" cy="37.16" fx="7.41" fy="37.16" r="13.36" xlink:href="#radial-gradient-7"/>
    <radialGradient id="radial-gradient-10" cx="18.91" cy="23.08" fx="18.91" fy="23.08" r="16.86" gradientUnits="userSpaceOnUse">
      <stop offset="0" stop-color="#fff"/>
      <stop offset=".1" stop-color="#fdfbf9"/>
      <stop offset=".22" stop-color="#fbf0e9"/>
      <stop offset=".36" stop-color="#f6ddce"/>
      <stop offset=".51" stop-color="#efc4a9"/>
      <stop offset=".67" stop-color="#e7a37a"/>
      <stop offset=".84" stop-color="#dc7c40"/>
      <stop offset="1" stop-color="#d15000"/>
    </radialGradient>
    <radialGradient id="radial-gradient-11" cx="20.01" cy="19.77" fx="20.01" fy="19.77" r="16.03" xlink:href="#radial-gradient-10"/>
    <radialGradient id="radial-gradient-12" cx="32.61" cy="9.97" fx="32.61" fy="9.97" r="7.29" xlink:href="#radial-gradient-3"/>
    <radialGradient id="radial-gradient-13" cx="6.85" cy="27.45" fx="6.85" fy="27.45" r="7.47" xlink:href="#radial-gradient-3"/>
    <radialGradient id="radial-gradient-14" cx="30.38" cy="27.67" fx="30.38" fy="27.67" r="7.92" xlink:href="#radial-gradient-3"/>
  </defs>
  <g class="cls-17">
    <g id="Layer_2" data-name="Layer 2">
      <g id="Layer_1-2" data-name="Layer 1">
        <g>
          <path class="cls-13" d="M27.88,34.24c.33.08.64.02.92-.18.27-.2.43-.48.45-.82.21-3-1.46-8.82-1.02-10.17.44-1.35,5.21-5.08,6.8-7.63.18-.29.22-.61.11-.93-.1-.32-.32-.56-.64-.68-2.79-1.12-8.84-1.34-9.99-2.17-.92-.67-5.29-10.28-6.99-11.26-.29-.17-.63.14-.85.4-1.93,2.3-3.02,10.04-4.17,10.87-1.15.83-8.82-.55-11.6.57-.31.13-.53.36-.64.68-.27.83,5.82,7.04,6.47,7.69,1.05,1.05,1.89,1.94,2.06,2.47.44,1.35-1.23,7.17-1.02,10.17.02.34.18.62.45.82.27.2.59.26.92.18,2.91-.73,7.94-4.11,9.36-4.11s6.44,3.38,9.36,4.11h0Z"/>
          <path class="cls-9" d="M26.04,31.8c.33.08.64.02.92-.18.27-.2.43-.48.45-.82.21-3-1.46-8.82-1.02-10.17.44-1.35,5.21-5.08,6.8-7.63.18-.29.22-.61.11-.93-.1-.32-.32-.56-.64-.68-2.79-1.12-8.84-1.34-9.99-2.17-1.15-.83-3.22-6.52-5.15-8.83C17.31.14,17.02,0,16.68,0s-.63.14-.85.4c-1.93,2.3-4.01,7.99-5.15,8.83-1.15.83-7.2,1.05-9.99,2.17-.31.13-.53.36-.64.68-.1.32-.07.64.11.93,1.59,2.55,6.36,6.28,6.8,7.63.44,1.35-1.23,7.17-1.02,10.17.02.34.18.62.45.82.27.2.59.26.92.18,2.91-.73,7.94-4.11,9.36-4.11s6.44,3.38,9.36,4.11h0Z"/>
          <path class="cls-12" d="M32.06,12.87c-3.37,2.42-5.26,3.86-8.2,5.8-.4.26-.78.82-.64,1.27.86,2.8,3.32,7.28,3.5,10.08.1,1.65-1.3,1.15-2.13.79-2.85-1.23-4.77-2.96-7.5-4.35-1.03-.53-1.79-.37-2.69.22-1.64,1.08-4.58,3.71-7.03,4.47-.69.22-1.12.17-1.4-.15.06.25.2.47.42.63.27.2.59.26.92.18,2.91-.73,7.94-4.11,9.36-4.11s6.44,3.38,9.36,4.11c.33.08.64.02.92-.18.27-.2.43-.48.45-.82.21-3-1.46-8.82-1.02-10.17.44-1.35,5.21-5.08,6.8-7.63.18-.29.22-.61.11-.93-.1-.32-.32-.56-.64-.68-2.79-1.12-8.84-1.34-9.99-2.17-1.15-.83-3.22-6.52-5.15-8.83-.22-.26-.51-.4-.85-.4s-.63.14-.85.4c-.3.36-.61.8-.91,1.29.84-.88,1.72-1.43,2.5-.21,1.45,2.26,2.08,4.69,2.86,6.98.49,1.43.78,2.02,3.59,2.21,3.22.22,5.9.44,7.82.76,1.06.18,1.08.92.37,1.43h0Z"/>
          <path class="cls-6" d="M14.82,2.35c-.91,1.69-1.71,3.54-2.56,5.27-.73,1.47-.99,2.34-2.81,2.65-2.25.39-4.54.45-6.79.81-2.44.39-3.01.95-1.24,2.9,1.05,1.16,5.84,5.5,6.16,6.56.28.94-.24,2.66-.29,3.74-.02.51.17,1.28,1.03.34,6.62-7.31,8.3-8.67,17.93-11.88,1.04-.35,2.1-.6,3.15-.92.29-.09.69-.38-.18-.5-3.01-.41-5.42-.08-8.03-.32-1.16-.1-1.9-1.5-2.26-2.48-.76-2.05-1.15-4.23-1.87-6.29-.57-1.62-1.62-1.03-2.23.11h0Z"/>
          <path class="cls-7" d="M7.12,11.87c-.62-.12-.47-.77.11-.9.92-.22,1.89-.26,2.81-.48.94-.22,1.51-.53,2.07-1.68.99-2.04,1.99-4.66,3.04-6.47.38-.65.81-.55.71.18-.32,2.32-.87,4.52-1.52,6.82-.33,1.16-.7,2.41-2.3,2.6-1.17.14-3.7.17-4.92-.07h0ZM4.85,11.13c-.73.05-2.18.23-3.07.54-.97.34-.77.55.11.6.94.05,1.88.05,2.82-.02,1.32-.1,1.14-1.19.14-1.11h0Z"/>
          <path class="cls-15" d="M23.81,29.09c-.43.18-1.48.41-.21,1.11.54.3,1.12.52,1.71.69,1.28.36,1.29-.55,1.1-1.49-.37-1.8-1.2-3.93-1.96-5.68-.35-.8-.79-1.22-.65.05.16,1.44.41,2.87.56,4.31.07.66.04.75-.55.99h0Z"/>
          <path class="cls-2" d="M6.15,31.36c.33.62,1.62,2.35,2.1,2.7.27.2.59.26.92.18,2.91-.73,7.94-4.11,9.36-4.11s6.44,3.38,9.36,4.11c.33.08.64.02.92-.18.27-.2.43-.48.45-.82.21-3-1.46-8.82-1.02-10.17.44-1.35,5.21-5.08,6.8-7.63.18-.29.22-.61.11-.93-.19-.57-1.64-2.46-2.08-2.85.04.07.21.33.24.42.1.32.07.64-.11.93-1.59,2.55-6.36,6.28-6.8,7.63-.44,1.35,1.23,7.17,1.02,10.17-.02.34-.18.62-.45.82-.27.2-.59.26-.92.18-2.91-.73-7.94-4.11-9.36-4.11s-6.44,3.38-9.36,4.11c-.33.08-.64.02-.92-.18-.05-.04-.22-.22-.26-.26h0Z"/>
          <path class="cls-1" d="M26.39,20.64l1.84,2.43c.45-1.35,5.21-5.08,6.8-7.62.18-.29.22-.61.11-.93-.02-.06-.06-.14-.1-.23-.39-.74-1.58-2.27-1.97-2.62.04.07.21.33.24.42.1.32.07.64-.11.93-.07.11-.15.23-.23.35-1.78,2.53-6.15,5.99-6.57,7.28h0Z"/>
          <path class="cls-11" d="M28.23,23.07l-1.84-2.43c-.44,1.35,1.23,7.17,1.02,10.17-.02.34-.18.62-.45.82-.02.02-.05.03-.07.05l1.84,2.43s.05-.03.07-.05c.27-.2.43-.48.45-.82.21-3-1.46-8.82-1.02-10.17,0,0,0,0,0,0h0Z"/>
          <path class="cls-8" d="M26.04,31.8c-2.91-.73-7.94-4.11-9.36-4.11l1.84,2.44c1.42.01,6.44,3.38,9.35,4.11.3.08.59.03.85-.13l-1.84-2.43c-.26.16-.55.2-.84.13h0Z"/>
          <path class="cls-3" d="M9.16,34.24c2.91-.73,7.94-4.11,9.36-4.11h0l-1.84-2.44c-1.34,0-5.91,3.03-8.87,3.97-.17.05-.33.1-.49.14-.33.08-.64.02-.92-.18-.05-.04-.22-.22-.26-.26.31.57,1.41,2.08,1.96,2.59.05.05.09.08.13.11.27.2.59.26.92.18h0Z"/>
          <path class="cls-4" d="M19.83,30.06c-1.19-.58-1.47-.6-2.53-.12-2.38,1.07-5.42,3.17-7.66,3.74-1.01.26-1.46.17-1.98-.23.24.28.45.5.59.61.27.2.59.26.92.18,2.91-.73,7.94-4.11,9.36-4.11s6.44,3.38,9.36,4.11c.14.03.27.04.4.03-.71-.12-1.39-.47-2.2-.86-2.03-1-4.36-2.43-6.25-3.34h0Z"/>
          <path class="cls-14" d="M28.94,21.19c-1.39,1.33-1.48,1.68-1.17,3.61.42,2.6,1.06,5.38,1.27,7.98.04.51.02.85-.07,1.15.17-.18.27-.41.29-.67.21-3-1.46-8.82-1.02-10.17.44-1.35,5.21-5.08,6.8-7.63.18-.29.22-.61.11-.93-.09-.29-.5-.9-.94-1.49.57,1.23.45,2.61-1.26,4.38-1.28,1.32-2.68,2.51-4.01,3.78h0Z"/>
          <path class="cls-16" d="M33.09,13.6c.96-.18,1.53,1.25,1.47,2.05-.02.21-.18.59-.34.9.32-.38.6-.76.82-1.11.18-.29.22-.61.11-.93-.02-.06-.06-.14-.1-.23-.39-.74-1.58-2.27-1.97-2.62.04.07.21.33.24.42.1.32.07.64-.11.93-.07.11-.15.23-.23.35-.1.14-.21.29-.32.44.15-.09.28-.16.45-.19h0Z"/>
          <path class="cls-10" d="M7.91,32.26c-.05-.07-.09-.13-.12-.19-.06-.14-.07-.26-.05-.38-.14.04-.28.08-.42.12-.33.08-.64.02-.92-.18-.05-.04-.22-.22-.26-.26.31.57,1.41,2.08,1.96,2.59.05.05.09.08.13.11.27.2.59.26.92.18.27-.07.56-.16.86-.27-.34-.02-.64-.1-.95-.4-.42-.41-.81-.85-1.17-1.31h0Z"/>
          <path class="cls-5" d="M26.2,32.07c.39.4.7.86,1.02,1.31.21.29.41.65.25.74.14.04.27.08.4.11.33.08.64.02.92-.18.2-.14.33-.33.4-.55-.15-.02-.27-.04-.41-.21-.34-.4-.66-.83-.97-1.26-.41-.58-.39-.62-.43-1.11-.05.28-.2.51-.44.68-.27.2-.59.26-.92.18-.09-.02-.19-.05-.28-.08.18.1.31.2.45.35h0Z"/>
        </g>
      </g>
    </g>
  </g>
</svg>