<?xml version="1.0" encoding="UTF-8"?>
<svg id="Layer_2" data-name="Layer 2" xmlns="http://www.w3.org/2000/svg" viewBox="0 0 1200.98 866.21">
  <defs>
    <style>
      .cls-1 {
        fill: #fff;
        stroke-width: 0px;
      }
    </style>
  </defs>
  <g id="_ëîé_1" data-name="‘ëîé_1">
    <g>
      <path class="cls-1" d="M238.73,194.81h0s-146.56,0-146.56,0C41.27,194.81,0,240.85,0,297.64v270.93c0,56.79,41.27,102.82,92.17,102.82h146.56s304.17,189.75,304.17,189.75c22.05,13.75,50.62-2.1,50.62-28.08V33.15c0-25.99-28.57-41.84-50.62-28.08L238.73,194.81Z"/>
      <g>
        <path class="cls-1" d="M768.59,251.87c86.12,102.01,92.93,250.25,16.52,359.72-13.25,18.98-40.29,21.7-57.14,5.84-.26-.24-.52-.48-.77-.73-13.7-12.9-15.91-33.89-5.16-49.33,56.32-80.89,51.29-190.31-12.2-265.69-12.12-14.39-11.84-35.49.62-49.59.23-.27.47-.53.7-.8,15.33-17.34,42.51-17.11,57.44.58Z"/>
        <path class="cls-1" d="M903.58,142.61c150.05,159.44,161.37,405.82,26.56,578.34-13.75,17.6-39.68,19.53-55.94,4.22-.25-.24-.51-.48-.76-.72-14.34-13.5-15.91-35.65-3.8-51.18,111.14-142.55,101.8-345.9-21.94-477.66-13.48-14.35-13.95-36.55-.91-51.31.23-.26.46-.52.69-.78,14.79-16.74,40.79-17.19,56.1-.92Z"/>
        <path class="cls-1" d="M1028.97,33.1c214.48,216.71,230.33,561.96,36.62,797.42-13.94,16.95-39.35,18.5-55.33,3.46-.25-.24-.51-.48-.76-.71-14.58-13.73-15.96-36.39-3.24-51.86,168.41-204.96,154.62-505.3-31.87-693.96-14.08-14.24-14.79-36.93-1.52-51.94.23-.26.46-.52.69-.78,14.53-16.44,39.98-17.23,55.41-1.63Z"/>
      </g>
    </g>
  </g>
</svg>