<?xml version="1.0" encoding="UTF-8"?>
<svg id="Layer_2" data-name="Layer 2" xmlns="http://www.w3.org/2000/svg" viewBox="0 0 1265.87 869.78">
  <defs>
    <style>
      .cls-1 {
        fill: #fff;
        stroke-width: 0px;
      }
    </style>
  </defs>
  <g id="_ëîé_1" data-name="‘ëîé_1">
    <g>
      <path class="cls-1" d="M239.71,195.62h0s-147.16,0-147.16,0C41.44,195.62,0,241.84,0,298.86v272.05c0,57.02,41.44,103.25,92.55,103.25h147.16s305.42,190.53,305.42,190.53c22.14,13.81,50.83-2.11,50.83-28.2V33.29c0-26.09-28.69-42.01-50.83-28.2L239.71,195.62Z"/>
      <g>
        <path class="cls-1" d="M785.27,671.51h0c-9.8-9.8-9.8-25.7,0-35.5l437.75-437.75c9.8-9.8,25.7-9.8,35.5,0h0c9.8,9.8,9.8,25.7,0,35.5l-437.75,437.75c-9.8,9.8-25.7,9.8-35.5,0Z"/>
        <path class="cls-1" d="M1258.52,671.51h0c9.8-9.8,9.8-25.7,0-35.5l-437.75-437.75c-9.8-9.8-25.7-9.8-35.5,0h0c-9.8,9.8-9.8,25.7,0,35.5l437.75,437.75c9.8,9.8,25.7,9.8,35.5,0Z"/>
      </g>
    </g>
  </g>
</svg>