<?xml version="1.0" encoding="utf-8"?>
<!-- Generator: Adobe Illustrator 28.1.0, SVG Export Plug-In . SVG Version: 6.00 Build 0)  -->
<svg version="1.1" id="Layer_1" xmlns="http://www.w3.org/2000/svg" xmlns:xlink="http://www.w3.org/1999/xlink" x="0px" y="0px"
	 viewBox="0 0 1440 320" style="enable-background:new 0 0 1440 320;" xml:space="preserve">
<style type="text/css">
	.st0{fill:#0099FF; filter:url(#orange-glow)}
</style>
<filter  height="200%" id="orange-glow" width="200%" x="-50%" y="-50%">
	<feGaussianBlur  result="coloredBlur" stdDeviation="30"></feGaussianBlur>
	<feFlood  flood-color="orange" result="flood"></feFlood>
	<feComposite  in="flood" in2="coloredBlur" operator="in" result="mask"></feComposite>
	<feMerge>
		<feMergeNode  in="mask"></feMergeNode>
		<feMergeNode  in="SourceGraphic"></feMergeNode>
	</feMerge>
</filter>
<g>
	
	<g>
		
		<g>
			<path class="st0" d="M0,64c0,0,45.1,0.2,64.9,9.8C244,160,409.2,56,489.3,56c76.7,0,150.2,38,230.2,43S879.2,64,960,64
				c134,0,152,40.7,232,35c80-5.3,99-31.7,225.7-35h22.3l0,256h-40c-40,0-120,0-200,0s-160,0-240,0s-160,0-240,0s-160,0-240,0
				s-160,0-240,0s-160,0-200,0H0L0,64z"/>
		</g>
	</g>
</g>
</svg>
