<?xml version="1.0" encoding="UTF-8"?>
<svg xmlns="http://www.w3.org/2000/svg" xmlns:xlink="http://www.w3.org/1999/xlink" viewBox="0 0 480.5 419.57">
  <defs>
    <style>
      .cls-1, .cls-2, .cls-3, .cls-4, .cls-5, .cls-6, .cls-7, .cls-8, .cls-9, .cls-10, .cls-11, .cls-12, .cls-13 {
        stroke-width: 0px;
      }

      .cls-1, .cls-3, .cls-6, .cls-8, .cls-10, .cls-12 {
        fill: #fff;
      }

      .cls-1, .cls-8 {
        opacity: .49;
      }

      .cls-2 {
        fill: url(#linear-gradient);
      }

      .cls-3, .cls-6, .cls-8, .cls-11 {
        mix-blend-mode: overlay;
      }

      .cls-3, .cls-12 {
        opacity: .7;
      }

      .cls-14 {
        isolation: isolate;
      }

      .cls-4, .cls-5, .cls-7, .cls-15 {
        mix-blend-mode: multiply;
      }

      .cls-4, .cls-7, .cls-13 {
        fill: #db5800;
      }

      .cls-4, .cls-15 {
        opacity: .43;
      }

      .cls-5 {
        fill: url(#radial-gradient);
      }

      .cls-9 {
        fill: #eec700;
      }

      .cls-11 {
        fill: #fff6cc;
        opacity: .35;
      }

      .cls-16 {
        filter: url(#luminosity-noclip);
      }

      .cls-17 {
        mask: url(#mask-1);
      }

      .cls-18 {
        mask: url(#mask);
      }
    </style>
    <linearGradient id="linear-gradient" x1="25.87" y1="208.65" x2="480.5" y2="208.65" gradientUnits="userSpaceOnUse">
      <stop offset=".06" stop-color="#e38250"/>
      <stop offset=".45" stop-color="#bd6e50"/>
      <stop offset="1" stop-color="#572600"/>
    </linearGradient>
    <filter id="luminosity-noclip" x=".01" y="108.35" width="91.99" height="85.66" color-interpolation-filters="sRGB" filterUnits="userSpaceOnUse">
      <feFlood flood-color="#fff" result="bg"/>
      <feBlend in="SourceGraphic" in2="bg"/>
    </filter>
    <filter id="luminosity-noclip-2" x=".01" y="-8826.61" width="91.99" height="32766" color-interpolation-filters="sRGB" filterUnits="userSpaceOnUse">
      <feFlood flood-color="#fff" result="bg"/>
      <feBlend in="SourceGraphic" in2="bg"/>
    </filter>
    <mask id="mask-1" x=".01" y="-8826.61" width="91.99" height="32766" maskUnits="userSpaceOnUse"/>
    <radialGradient id="radial-gradient" cx="-1142.38" cy="-398.95" fx="-1142.38" fy="-398.95" r="94.98" gradientTransform="translate(580.53 337.85) scale(.47)" gradientUnits="userSpaceOnUse">
      <stop offset=".09" stop-color="#fff"/>
      <stop offset=".17" stop-color="#f6f6f6"/>
      <stop offset=".3" stop-color="#ddd"/>
      <stop offset=".45" stop-color="#b5b5b5"/>
      <stop offset=".64" stop-color="#7e7e7e"/>
      <stop offset=".85" stop-color="#393939"/>
      <stop offset="1" stop-color="#000"/>
    </radialGradient>
    <mask id="mask" x=".01" y="108.35" width="91.99" height="85.66" maskUnits="userSpaceOnUse">
      <g class="cls-16">
        <g class="cls-17">
          <path class="cls-5" d="M46.01,108.35C20.62,108.35.01,127.53.01,151.2s20.6,42.81,46,42.81,45.99-19.19,45.99-42.81-20.6-42.85-45.99-42.85Z"/>
        </g>
      </g>
    </mask>
  </defs>
  <g class="cls-14">
    <g id="Layer_2" data-name="Layer 2">
      <g id="Layer_7" data-name="Layer 7">
        <g>
          <g>
            <path class="cls-9" d="M478.87,156.05c14.72-35.44-73.88-44.12-129.17-44.23-12.85-23.75-50.17-90.21-75.1-108.56-27.74-20.41-77.08,59.53-105.96,108.67-53.2-1.19-156.98,5.99-141.15,44.11,13.09,31.53,58.32,79.17,85.64,106.16-16.71,47.33-44.9,159.09-1.77,154.98,39.95-3.79,114.21-43.5,141.83-58.94,27.62,15.44,101.89,55.14,141.82,58.94,43.13,4.11,14.94-107.64-1.75-154.98,27.31-26.99,72.56-74.63,85.62-106.16Z"/>
            <path class="cls-2" d="M478.87,156.05c14.72-35.44-73.88-44.12-129.17-44.23-12.85-23.75-50.17-90.21-75.1-108.56-27.74-20.41-77.08,59.53-105.96,108.67-53.2-1.19-156.98,5.99-141.15,44.11,13.09,31.53,58.32,79.17,85.64,106.16-16.71,47.33-44.9,159.09-1.77,154.98,39.95-3.79,114.21-43.5,141.83-58.94,27.62,15.44,101.89,55.14,141.82,58.94,43.13,4.11,14.94-107.64-1.75-154.98,27.31-26.99,72.56-74.63,85.62-106.16Z"/>
            <path class="cls-11" d="M442.52,164.52c12.33-29.71-61.99-37.01-108.36-37.09-10.78-19.93-42.08-75.69-63.01-91.07-23.25-17.12-64.64,49.95-88.87,91.17-44.63-1-131.71,5.03-118.43,37,10.98,26.47,48.95,66.42,71.86,89.06-14.02,39.72-37.66,133.46-1.49,130.03,33.51-3.21,95.81-36.5,118.98-49.45,23.18,12.95,85.48,46.24,118.98,49.45,36.17,3.44,12.52-90.31-1.48-130.03,22.91-22.63,60.86-62.59,71.83-89.06Z"/>
            <g class="cls-15">
              <path class="cls-13" d="M393.26,238.29c1.86,5.28,3.87,11.4,5.9,18.03,27.5-27.61,67.55-70.91,79.71-100.27,2.97-7.13,1.69-13.16-2.6-18.28-15.68,31.35-57.3,75.1-83.02,100.52Z"/>
              <path class="cls-13" d="M113.13,238.29c-25.74-25.43-67.4-69.22-83.06-100.57-4.31,5.11-5.55,11.18-2.58,18.33,12.19,29.36,52.23,72.66,79.72,100.27,2.03-6.64,4.05-12.76,5.91-18.03Z"/>
              <path class="cls-7" d="M395.01,393.26c-39.92-3.8-114.2-43.49-141.82-58.94-27.62,15.45-101.88,55.14-141.83,58.94-14.03,1.34-20.48-9.64-22.26-26.62-2.33,29.69,2.38,52.45,22.26,50.55,39.95-3.79,114.21-43.5,141.83-58.94,27.62,15.44,101.89,55.14,141.82,58.94,19.89,1.9,24.58-20.86,22.27-50.55-1.78,16.98-8.23,27.96-22.27,26.62Z"/>
            </g>
            <path class="cls-10" d="M160.57,369.61c2.31-.93,62.29-26.3,78.41-37.17,16.11-10.86,16.76-8.77,63.36,18.6,46.63,27.35,70.55,31.39,78.96,24.33,8.39-7.04,2.81,11.51-19.43,6.53-22.23-4.99-96.82-38.31-102.75-43.03-5.92-4.72-80.2,41.65-115.9,43.31-35.7,1.65-9.36-1.78,17.35-12.57Z"/>
            <g>
              <path class="cls-8" d="M334.15,127.43c-10.78-19.93-42.08-75.69-63.01-91.07-23.25-17.12-64.64,49.95-88.87,91.17-44.63-1-131.71,5.03-118.43,37,10.98,26.47,48.95,66.42,71.86,89.06-3.53,10.01-7.68,23.44-11.32,37.88,42.67,6.14,101.39-9.91,144.19-25.72,72.23-26.66,96.38-32.35,171.84-96.68.77-1.55,1.5-3.07,2.1-4.54,12.33-29.71-61.99-37.01-108.36-37.09Z"/>
              <path class="cls-1" d="M334.15,127.43c-10.78-19.93-42.08-75.69-63.01-91.07-23.25-17.12-64.64,49.95-88.87,91.17-44.63-1-131.71,5.03-118.43,37,.1.22.21.44.31.68,11.45-20.98,80.14-25.21,118.12-24.36,24.23-41.22,65.62-108.29,88.87-91.18,20.93,15.39,52.23,71.14,63.01,91.07,38.94.07,97.55,5.22,108.07,24.46.1-.22.21-.44.29-.66,12.33-29.71-61.99-37.01-108.36-37.09Z"/>
              <path class="cls-10" d="M262.92,33.63c-11.01-.31-38.56,25.58-58.39,57.67-19.82,32.1,41.34-34.16,58.39-32.92,17.03,1.23,21.29-24.16,0-24.75Z"/>
            </g>
            <path class="cls-10" d="M276.98,7.14s-2.28,28.37-8.28,25.19c-7.28-3.85-13.38,1.29-13.38,1.29l-5.7-26.48s15.28-14.4,27.37,0Z"/>
            <path class="cls-10" d="M36.33,134.61s13.73,2.96,21.85,8.6l8.13,5.64s-4.9,4.52-4.75,10.37c.15,5.87.95,6.44.95,6.44,0,0-33.37-2.93-36.24-13.71-2.9-10.79,6.33-16.09,10.07-17.33Z"/>
            <path class="cls-4" d="M467.86,132.44s-8.88,3.46-15.56,8c-6.69,4.53-8.42,8.28-8.42,8.28,0,0,1.5,5.04,1.5,6.91v5.77s21.51-2.41,28.1-5.77c6.6-3.36,6.24-13.11,4.5-15.5-1.71-2.37-8.14-8.52-10.12-7.7Z"/>
            <path class="cls-4" d="M125.66,383.12s-9.19,30.19-11.86,32.13c-2.65,1.94-13.81,3.49-17.93-3.91-4.11-7.39-6.25-12.48-4.23-16.8,2.01-4.32,26.32-18.72,26.32-18.72,0,0,3.34,7.3,7.7,7.3Z"/>
            <path class="cls-4" d="M378.95,383.12s9.19,30.19,11.86,32.13c2.64,1.94,13.81,3.49,17.91-3.91,4.12-7.39,6.27-12.48,4.25-16.8-2.01-4.32-26.33-18.72-26.33-18.72,0,0-3.32,7.3-7.69,7.3Z"/>
            <path class="cls-4" d="M255.45,338.88v19.37s-111.08,55.89-125.19,58.6l-14.09,2.71,14.09-29.94s112.76-40.16,125.19-50.75Z"/>
            <path class="cls-3" d="M182.27,127.53l-13.63-15.58s35.14-65.93,61.09-89.26c25.94-23.31,39.4-28.61,39.19-9.49-.22,19.13-6,20.43-6,20.43,0,0-28.96,2.44-80.65,93.9Z"/>
          </g>
          <g>
            <g class="cls-18">
              <path class="cls-6" d="M46.01,108.35C20.62,108.35.01,127.53.01,151.2s20.6,42.81,46,42.81,45.99-19.19,45.99-42.81-20.6-42.85-45.99-42.85Z"/>
            </g>
            <path class="cls-12" d="M4.01,207.56c12.34-13.85,48.64-56.36,48.64-56.36,0,0,30.32-56.89,31.05-58.49.2-.46-38.74,53.49-38.74,53.49L4.01,207.56Z"/>
            <path class="cls-10" d="M56.01,141.02c-11.18-8.75-9.15-33.34-9.24-40.3v6.67c0-1.06-.08-2.21-.08-2.47v-4.2c-.01,2-.15,5.16-.62,8.81,0,0-3.28,24.68-9.19,29.78-13.32,11.69-46.85,9.43-33.99,9.73,43.42.93,43.42,43.31,43.8,57.21v-7c.03.5.08.92.08,1.17v5.83c.92-32.91.81-53.73,38.69-56.51,12.55-.96-16.37,1.45-29.45-8.73Z"/>
          </g>
        </g>
      </g>
    </g>
  </g>
</svg>