<?xml version="1.0" encoding="UTF-8"?>
<svg xmlns="http://www.w3.org/2000/svg" xmlns:xlink="http://www.w3.org/1999/xlink" viewBox="0 0 616.57 419.57">
  <defs>
    <style>
      .cls-1, .cls-2, .cls-3, .cls-4, .cls-5, .cls-6, .cls-7, .cls-8, .cls-9, .cls-10, .cls-11, .cls-12, .cls-13, .cls-14, .cls-15, .cls-16, .cls-17, .cls-18, .cls-19 {
        stroke-width: 0px;
      }

      .cls-1, .cls-5, .cls-7, .cls-20 {
        mix-blend-mode: multiply;
      }

      .cls-1, .cls-5, .cls-18 {
        fill: #828282;
      }

      .cls-2, .cls-4, .cls-8, .cls-10, .cls-12, .cls-17 {
        fill: #fff;
      }

      .cls-2, .cls-10 {
        opacity: .49;
      }

      .cls-3 {
        fill: url(#linear-gradient);
      }

      .cls-4, .cls-8, .cls-10, .cls-16 {
        mix-blend-mode: overlay;
      }

      .cls-4, .cls-17 {
        opacity: .7;
      }

      .cls-5, .cls-20 {
        opacity: .25;
      }

      .cls-6 {
        fill: url(#linear-gradient-6);
      }

      .cls-21 {
        isolation: isolate;
      }

      .cls-7 {
        fill: url(#radial-gradient);
      }

      .cls-9 {
        fill: url(#linear-gradient-5);
      }

      .cls-11 {
        fill: #eec700;
      }

      .cls-13 {
        fill: url(#linear-gradient-2);
      }

      .cls-14 {
        fill: url(#linear-gradient-7);
      }

      .cls-15 {
        fill: url(#linear-gradient-3);
      }

      .cls-16 {
        fill: #fff6cc;
        opacity: .35;
      }

      .cls-22 {
        filter: url(#luminosity-noclip);
      }

      .cls-23 {
        mask: url(#mask-1);
      }

      .cls-24 {
        mask: url(#mask);
      }

      .cls-19 {
        fill: url(#linear-gradient-4);
      }
    </style>
    <linearGradient id="linear-gradient" x1="4494.12" y1="656.38" x2="4738.37" y2="656.38" gradientTransform="translate(-4364.53 -1116.49) rotate(7)" gradientUnits="userSpaceOnUse">
      <stop offset="0" stop-color="#b5c0c9"/>
      <stop offset="1" stop-color="#8f939c"/>
    </linearGradient>
    <linearGradient id="linear-gradient-2" x1="5240.04" y1="554.98" x2="5495.12" y2="554.98" gradientTransform="translate(-5251.41 -231.88) rotate(-1.59)" xlink:href="#linear-gradient"/>
    <linearGradient id="linear-gradient-3" x1="5964.08" y1="592.74" x2="6235.7" y2="592.74" gradientTransform="translate(-5960.04 698.54) rotate(-9.57)" xlink:href="#linear-gradient"/>
    <linearGradient id="linear-gradient-4" x1="-738.61" y1="1299.01" x2="-494.37" y2="1299.01" gradientTransform="translate(-291.25 -1116.49) rotate(173) scale(1 -1)" xlink:href="#linear-gradient"/>
    <linearGradient id="linear-gradient-5" x1="-30.34" y1="408.41" x2="224.74" y2="408.41" gradientTransform="translate(595.63 -231.88) rotate(-178.41) scale(1 -1)" xlink:href="#linear-gradient"/>
    <linearGradient id="linear-gradient-6" x1="764.78" y1="-284.18" x2="1036.39" y2="-284.18" gradientTransform="translate(1304.27 698.54) rotate(-170.43) scale(1 -1)" xlink:href="#linear-gradient"/>
    <linearGradient id="linear-gradient-7" x1="81.05" y1="208.65" x2="535.69" y2="208.65" gradientTransform="matrix(1,0,0,1,0,0)" xlink:href="#linear-gradient"/>
    <filter id="luminosity-noclip" x="62.87" y="92.83" width="91.99" height="85.66" color-interpolation-filters="sRGB" filterUnits="userSpaceOnUse">
      <feFlood flood-color="#fff" result="bg"/>
      <feBlend in="SourceGraphic" in2="bg"/>
    </filter>
    <filter id="luminosity-noclip-2" x="62.87" y="-8826.61" width="91.99" height="32766" color-interpolation-filters="sRGB" filterUnits="userSpaceOnUse">
      <feFlood flood-color="#fff" result="bg"/>
      <feBlend in="SourceGraphic" in2="bg"/>
    </filter>
    <mask id="mask-1" x="62.87" y="-8826.61" width="91.99" height="32766" maskUnits="userSpaceOnUse"/>
    <radialGradient id="radial-gradient" cx="-122.85" cy="-432.12" fx="-122.85" fy="-432.12" r="94.98" gradientTransform="translate(166.35 337.85) scale(.47)" gradientUnits="userSpaceOnUse">
      <stop offset=".09" stop-color="#fff"/>
      <stop offset=".17" stop-color="#f6f6f6"/>
      <stop offset=".3" stop-color="#ddd"/>
      <stop offset=".45" stop-color="#b5b5b5"/>
      <stop offset=".64" stop-color="#7e7e7e"/>
      <stop offset=".85" stop-color="#393939"/>
      <stop offset="1" stop-color="#000"/>
    </radialGradient>
    <mask id="mask" x="62.87" y="92.83" width="91.99" height="85.66" maskUnits="userSpaceOnUse">
      <g class="cls-22">
        <g class="cls-23">
          <path class="cls-7" d="M108.87,92.83c-25.4,0-46,19.18-46,42.85s20.6,42.81,46,42.81,45.99-19.19,45.99-42.81-20.6-42.85-45.99-42.85Z"/>
        </g>
      </g>
    </mask>
  </defs>
  <g class="cls-21">
    <g id="Layer_2" data-name="Layer 2">
      <g id="Layer_6" data-name="Layer 6">
        <g>
          <g>
            <g>
              <g>
                <path class="cls-3" d="M253.76,119.82C249.89,107.99,31.73,20.61,31.73,20.61c-12.18-13.39-8.21,12.32-4.08,50.99,4.13,38.68,5.71,56.54,14.77,63.79,9.06,7.25,185.38,37.75,198.29,42.04,12.91,4.28,16.92-45.8,13.05-57.62Z"/>
                <path class="cls-2" d="M251.64,131.82c-3.87-11.82-222.02-99.2-222.02-99.2-2.78-3.05-4.71-4.05-6-3.35-.36-11.64,1.49-15.93,8.11-8.65,0,0,218.15,87.38,222.02,99.21,2.32,7.08,1.81,27.85-1.74,42.47,1.5-12.29,1.35-25.19-.38-30.47Z"/>
              </g>
              <g>
                <path class="cls-13" d="M254.27,181.69c-5.53-12-245.7-79.79-245.7-79.79-14.83-11.61-7.69,15.63,1.03,57.07,8.73,41.45,12.4,60.67,23.14,66.33,10.74,5.66,198.79,21.61,213.44,23.03,14.65,1.42,13.63-54.64,8.1-66.64Z"/>
                <path class="cls-2" d="M253.25,195.42C247.72,183.42,7.55,115.63,7.55,115.63c-3.38-2.65-5.61-3.25-6.95-2.15-1.65-12.7-.09-17.89,7.98-11.58,0,0,240.17,67.79,245.7,79.79,3.31,7.18,5,30.14,2.69,47.12.32-13.89-1.24-28.03-3.71-33.39Z"/>
              </g>
              <g>
                <path class="cls-15" d="M287.05,260.37c-7.43-12.12-272.21-56.38-272.21-56.38-17.81-9.43-7.02,19.37,7,63.71,14.03,44.34,20.11,65,32.72,68.76,12.61,3.75,213.67,2.49,230.23.54,16.56-1.94,9.68-64.52,2.25-76.63Z"/>
                <path class="cls-2" d="M287.31,276c-7.43-12.12-272.21-56.37-272.21-56.37-4.06-2.15-6.62-2.29-8.01-.74-3.15-13.83-1.93-20.02,7.75-14.9,0,0,264.78,44.26,272.21,56.38,4.45,7.25,8.69,32.57,7.84,52.15-1.06-15.64-4.26-31.11-7.58-36.52Z"/>
              </g>
            </g>
            <g>
              <g>
                <path class="cls-19" d="M362.82,119.82c3.87-11.82,222.02-99.21,222.02-99.21,12.18-13.39,8.21,12.32,4.08,50.99-4.13,38.68-5.71,56.54-14.77,63.79-9.06,7.25-185.38,37.75-198.29,42.04-12.91,4.28-16.92-45.8-13.05-57.62Z"/>
                <path class="cls-2" d="M364.93,131.82c3.87-11.82,222.02-99.2,222.02-99.2,2.78-3.05,4.71-4.05,6-3.35.36-11.64-1.49-15.93-8.11-8.65,0,0-218.15,87.38-222.02,99.21-2.32,7.08-1.81,27.85,1.74,42.47-1.5-12.29-1.35-25.19.38-30.47Z"/>
              </g>
              <g>
                <path class="cls-9" d="M362.3,181.69c5.53-12,245.7-79.79,245.7-79.79,14.83-11.61,7.69,15.63-1.03,57.07-8.73,41.45-12.4,60.67-23.14,66.33-10.74,5.66-198.79,21.61-213.44,23.03-14.65,1.42-13.63-54.64-8.1-66.64Z"/>
                <path class="cls-2" d="M363.32,195.42c5.53-12,245.7-79.79,245.7-79.79,3.38-2.65,5.61-3.25,6.95-2.15,1.65-12.7.09-17.89-7.98-11.58,0,0-240.17,67.79-245.7,79.79-3.31,7.18-5,30.14-2.69,47.12-.32-13.89,1.24-28.03,3.71-33.39Z"/>
              </g>
              <g>
                <path class="cls-6" d="M329.52,260.37c7.43-12.12,272.21-56.38,272.21-56.38,17.81-9.43,7.02,19.37-7,63.71-14.03,44.34-20.11,65-32.72,68.76-12.61,3.75-213.67,2.49-230.23.54-16.56-1.94-9.68-64.52-2.25-76.63Z"/>
                <path class="cls-2" d="M329.27,276c7.43-12.12,272.21-56.37,272.21-56.37,4.06-2.15,6.62-2.29,8.01-.74,3.15-13.83,1.93-20.02-7.75-14.9,0,0-264.78,44.26-272.21,56.38-4.45,7.25-8.69,32.57-7.84,52.15,1.06-15.64,4.26-31.11,7.58-36.52Z"/>
              </g>
            </g>
          </g>
          <g>
            <path class="cls-11" d="M534.06,156.05c14.72-35.44-73.88-44.12-129.17-44.23-12.85-23.75-50.17-90.21-75.1-108.56-27.74-20.41-77.08,59.53-105.96,108.67-53.2-1.19-156.98,5.99-141.15,44.11,13.09,31.53,58.32,79.17,85.64,106.16-16.71,47.33-44.9,159.09-1.77,154.98,39.95-3.79,114.21-43.5,141.83-58.94,27.62,15.44,101.89,55.14,141.82,58.94,43.13,4.11,14.94-107.64-1.75-154.98,27.31-26.99,72.56-74.63,85.62-106.16Z"/>
            <path class="cls-14" d="M534.06,156.05c14.72-35.44-73.88-44.12-129.17-44.23-12.85-23.75-50.17-90.21-75.1-108.56-27.74-20.41-77.08,59.53-105.96,108.67-53.2-1.19-156.98,5.99-141.15,44.11,13.09,31.53,58.32,79.17,85.64,106.16-16.71,47.33-44.9,159.09-1.77,154.98,39.95-3.79,114.21-43.5,141.83-58.94,27.62,15.44,101.89,55.14,141.82,58.94,43.13,4.11,14.94-107.64-1.75-154.98,27.31-26.99,72.56-74.63,85.62-106.16Z"/>
            <path class="cls-16" d="M497.7,164.52c12.33-29.71-61.99-37.01-108.36-37.09-10.78-19.93-42.08-75.69-63.01-91.07-23.25-17.12-64.64,49.95-88.87,91.17-44.63-1-131.71,5.03-118.43,37,10.98,26.47,48.95,66.42,71.86,89.06-14.02,39.72-37.66,133.46-1.49,130.03,33.51-3.21,95.81-36.5,118.98-49.45,23.18,12.95,85.48,46.24,118.98,49.45,36.17,3.44,12.52-90.31-1.48-130.03,22.91-22.63,60.86-62.59,71.83-89.06Z"/>
            <g class="cls-20">
              <path class="cls-18" d="M448.44,238.29c1.86,5.28,3.87,11.4,5.9,18.03,27.5-27.61,67.55-70.91,79.71-100.27,2.97-7.13,1.69-13.16-2.6-18.28-15.68,31.35-57.3,75.1-83.02,100.52Z"/>
              <path class="cls-18" d="M168.32,238.29c-25.74-25.43-67.4-69.22-83.06-100.57-4.31,5.11-5.55,11.18-2.58,18.33,12.19,29.36,52.23,72.66,79.72,100.27,2.03-6.64,4.05-12.76,5.91-18.03Z"/>
              <path class="cls-1" d="M450.19,393.26c-39.92-3.8-114.2-43.49-141.82-58.94-27.62,15.45-101.88,55.14-141.83,58.94-14.03,1.34-20.48-9.64-22.26-26.62-2.33,29.69,2.38,52.45,22.26,50.55,39.95-3.79,114.21-43.5,141.83-58.94,27.62,15.44,101.89,55.14,141.82,58.94,19.89,1.9,24.58-20.86,22.27-50.55-1.78,16.98-8.23,27.96-22.27,26.62Z"/>
            </g>
            <path class="cls-12" d="M215.75,369.61c2.31-.93,62.29-26.3,78.41-37.17,16.11-10.86,16.76-8.77,63.36,18.6,46.63,27.35,70.55,31.39,78.96,24.33,8.39-7.04,2.81,11.51-19.43,6.53-22.23-4.99-96.82-38.31-102.75-43.03-5.92-4.72-80.2,41.65-115.9,43.31-35.7,1.65-9.36-1.78,17.35-12.57Z"/>
            <g>
              <path class="cls-10" d="M389.34,127.43c-10.78-19.93-42.08-75.69-63.01-91.07-23.25-17.12-64.64,49.95-88.87,91.17-44.63-1-131.71,5.03-118.43,37,10.98,26.47,48.95,66.42,71.86,89.06-3.53,10.01-7.68,23.44-11.32,37.88,42.67,6.14,101.39-9.91,144.19-25.72,72.23-26.66,96.38-32.35,171.84-96.68.77-1.55,1.5-3.07,2.1-4.54,12.33-29.71-61.99-37.01-108.36-37.09Z"/>
              <path class="cls-2" d="M389.34,127.43c-10.78-19.93-42.08-75.69-63.01-91.07-23.25-17.12-64.64,49.95-88.87,91.17-44.63-1-131.71,5.03-118.43,37,.1.22.21.44.31.68,11.45-20.98,80.14-25.21,118.12-24.36,24.23-41.22,65.62-108.29,88.87-91.18,20.93,15.39,52.23,71.14,63.01,91.07,38.94.07,97.55,5.22,108.07,24.46.1-.22.21-.44.29-.66,12.33-29.71-61.99-37.01-108.36-37.09Z"/>
              <path class="cls-12" d="M318.11,33.63c-11.01-.31-38.56,25.58-58.39,57.67-19.82,32.1,41.34-34.16,58.39-32.92,17.03,1.23,21.29-24.16,0-24.75Z"/>
            </g>
            <path class="cls-12" d="M332.17,7.14s-2.28,28.37-8.28,25.19c-7.28-3.85-13.38,1.29-13.38,1.29l-5.7-26.48s15.28-14.4,27.37,0Z"/>
            <path class="cls-12" d="M91.51,134.61s13.73,2.96,21.85,8.6l8.13,5.64s-4.9,4.52-4.75,10.37c.15,5.87.95,6.44.95,6.44,0,0-33.37-2.93-36.24-13.71-2.9-10.79,6.33-16.09,10.07-17.33Z"/>
            <path class="cls-5" d="M523.05,132.44s-8.88,3.46-15.56,8c-6.69,4.53-8.42,8.28-8.42,8.28,0,0,1.5,5.04,1.5,6.91v5.77s21.51-2.41,28.1-5.77c6.6-3.36,6.24-13.11,4.5-15.5-1.71-2.37-8.14-8.52-10.12-7.7Z"/>
            <path class="cls-5" d="M180.84,383.12s-9.19,30.19-11.86,32.13c-2.65,1.94-13.81,3.49-17.93-3.91-4.11-7.39-6.25-12.48-4.23-16.8,2.01-4.32,26.32-18.72,26.32-18.72,0,0,3.34,7.3,7.7,7.3Z"/>
            <path class="cls-5" d="M434.14,383.12s9.19,30.19,11.86,32.13c2.64,1.94,13.81,3.49,17.91-3.91,4.12-7.39,6.27-12.48,4.25-16.8-2.01-4.32-26.33-18.72-26.33-18.72,0,0-3.32,7.3-7.69,7.3Z"/>
            <path class="cls-5" d="M310.63,338.88v19.37s-111.08,55.89-125.19,58.6l-14.09,2.71,14.09-29.94s112.76-40.16,125.19-50.75Z"/>
            <path class="cls-4" d="M237.46,127.53l-13.63-15.58s35.14-65.93,61.09-89.26c25.94-23.31,39.4-28.61,39.19-9.49-.22,19.13-6,20.43-6,20.43,0,0-28.96,2.44-80.65,93.9Z"/>
          </g>
          <g>
            <g class="cls-24">
              <path class="cls-8" d="M108.87,92.83c-25.4,0-46,19.18-46,42.85s20.6,42.81,46,42.81,45.99-19.19,45.99-42.81-20.6-42.85-45.99-42.85Z"/>
            </g>
            <path class="cls-17" d="M66.86,192.04c12.34-13.85,48.64-56.36,48.64-56.36,0,0,30.32-56.89,31.05-58.49.2-.46-38.74,53.49-38.74,53.49l-40.94,61.36Z"/>
            <path class="cls-12" d="M118.87,125.49c-11.18-8.75-9.15-33.34-9.24-40.3v6.67c0-1.06-.08-2.21-.08-2.47v-4.2c-.01,2-.15,5.16-.62,8.81,0,0-3.28,24.68-9.19,29.78-13.32,11.69-46.85,9.43-33.99,9.73,43.42.93,43.42,43.31,43.8,57.21v-7c.03.5.08.92.08,1.17v5.83c.92-32.91.81-53.73,38.69-56.51,12.55-.96-16.37,1.45-29.45-8.73Z"/>
          </g>
        </g>
      </g>
    </g>
  </g>
</svg>